<mxfile host="app.diagrams.net" agent="Mozilla/5.0 (Windows NT 10.0; Win64; x64) AppleWebKit/537.36 (KHTML, like Gecko) Chrome/130.0.0.0 Safari/537.36" version="24.8.4">
  <diagram name="Page-1" id="X9py8qPNmhiQziaTyPdJ">
    <mxGraphModel dx="595" dy="676" grid="1" gridSize="10" guides="1" tooltips="1" connect="1" arrows="1" fold="1" page="1" pageScale="1" pageWidth="850" pageHeight="1100" math="0" shadow="0">
      <root>
        <mxCell id="0" />
        <mxCell id="1" parent="0" />
        <mxCell id="wq1x-DvyOyqJZuiO0ZfP-2" style="edgeStyle=orthogonalEdgeStyle;rounded=0;orthogonalLoop=1;jettySize=auto;html=1;exitX=0.5;exitY=1;exitDx=0;exitDy=0;" parent="1" source="wq1x-DvyOyqJZuiO0ZfP-1" edge="1">
          <mxGeometry relative="1" as="geometry">
            <mxPoint x="425.33333333333337" y="170" as="targetPoint" />
          </mxGeometry>
        </mxCell>
        <mxCell id="wq1x-DvyOyqJZuiO0ZfP-1" value="&lt;font style=&quot;font-size: 24px;&quot; face=&quot;Lucida Console&quot;&gt;START&lt;/font&gt;" style="ellipse;whiteSpace=wrap;html=1;" parent="1" vertex="1">
          <mxGeometry x="365" y="40" width="120" height="80" as="geometry" />
        </mxCell>
        <mxCell id="wq1x-DvyOyqJZuiO0ZfP-8" style="edgeStyle=orthogonalEdgeStyle;rounded=0;orthogonalLoop=1;jettySize=auto;html=1;entryX=0.5;entryY=0;entryDx=0;entryDy=0;" parent="1" edge="1">
          <mxGeometry relative="1" as="geometry">
            <mxPoint x="425.25" y="290" as="targetPoint" />
            <mxPoint x="425.5" y="240" as="sourcePoint" />
          </mxGeometry>
        </mxCell>
        <mxCell id="U0mUFiChf7s_CxI3_zp7-6" style="edgeStyle=orthogonalEdgeStyle;rounded=0;orthogonalLoop=1;jettySize=auto;html=1;entryX=0.5;entryY=1;entryDx=0;entryDy=0;" edge="1" parent="1" source="wq1x-DvyOyqJZuiO0ZfP-11" target="U0mUFiChf7s_CxI3_zp7-7">
          <mxGeometry relative="1" as="geometry">
            <mxPoint x="570" y="330" as="targetPoint" />
          </mxGeometry>
        </mxCell>
        <mxCell id="wq1x-DvyOyqJZuiO0ZfP-11" value="&lt;font style=&quot;font-size: 18px;&quot; face=&quot;Helvetica&quot;&gt;i &amp;lt; transactions ?&lt;/font&gt;" style="rhombus;whiteSpace=wrap;html=1;" parent="1" vertex="1">
          <mxGeometry x="368" y="810" width="115" height="80" as="geometry" />
        </mxCell>
        <mxCell id="U0mUFiChf7s_CxI3_zp7-4" value="int balance&amp;nbsp;&lt;div&gt;int transactions[];&lt;/div&gt;&lt;div&gt;int toBeProcessed[];&lt;/div&gt;&lt;div&gt;int skipped = 0;&lt;/div&gt;&lt;div&gt;int breakIndex = -1;&lt;/div&gt;" style="rounded=0;whiteSpace=wrap;html=1;" vertex="1" parent="1">
          <mxGeometry x="353" y="170" width="145" height="70" as="geometry" />
        </mxCell>
        <mxCell id="U0mUFiChf7s_CxI3_zp7-11" style="edgeStyle=orthogonalEdgeStyle;rounded=0;orthogonalLoop=1;jettySize=auto;html=1;" edge="1" parent="1" source="U0mUFiChf7s_CxI3_zp7-7">
          <mxGeometry relative="1" as="geometry">
            <mxPoint x="430" y="260" as="targetPoint" />
            <Array as="points">
              <mxPoint x="640" y="260" />
            </Array>
          </mxGeometry>
        </mxCell>
        <mxCell id="U0mUFiChf7s_CxI3_zp7-7" value="&lt;font style=&quot;font-size: 18px;&quot;&gt;i++&lt;/font&gt;" style="rounded=0;whiteSpace=wrap;html=1;" vertex="1" parent="1">
          <mxGeometry x="580" y="490" width="120" height="60" as="geometry" />
        </mxCell>
        <mxCell id="U0mUFiChf7s_CxI3_zp7-14" style="edgeStyle=orthogonalEdgeStyle;rounded=0;orthogonalLoop=1;jettySize=auto;html=1;entryX=0.5;entryY=0;entryDx=0;entryDy=0;" edge="1" parent="1" source="U0mUFiChf7s_CxI3_zp7-12" target="U0mUFiChf7s_CxI3_zp7-13">
          <mxGeometry relative="1" as="geometry" />
        </mxCell>
        <mxCell id="U0mUFiChf7s_CxI3_zp7-16" style="edgeStyle=orthogonalEdgeStyle;rounded=0;orthogonalLoop=1;jettySize=auto;html=1;" edge="1" parent="1" source="U0mUFiChf7s_CxI3_zp7-12">
          <mxGeometry relative="1" as="geometry">
            <mxPoint x="460" y="560" as="targetPoint" />
            <Array as="points">
              <mxPoint x="540" y="330" />
              <mxPoint x="540" y="560" />
            </Array>
          </mxGeometry>
        </mxCell>
        <mxCell id="U0mUFiChf7s_CxI3_zp7-12" value="if balance +&lt;div&gt;transaction &amp;lt; 0&lt;/div&gt;" style="rhombus;whiteSpace=wrap;html=1;" vertex="1" parent="1">
          <mxGeometry x="385" y="290" width="80" height="80" as="geometry" />
        </mxCell>
        <mxCell id="U0mUFiChf7s_CxI3_zp7-15" style="edgeStyle=orthogonalEdgeStyle;rounded=0;orthogonalLoop=1;jettySize=auto;html=1;entryX=0;entryY=0.5;entryDx=0;entryDy=0;" edge="1" parent="1" source="U0mUFiChf7s_CxI3_zp7-13" target="wq1x-DvyOyqJZuiO0ZfP-11">
          <mxGeometry relative="1" as="geometry">
            <mxPoint x="260" y="570" as="targetPoint" />
            <Array as="points">
              <mxPoint x="260" y="460" />
              <mxPoint x="260" y="850" />
            </Array>
          </mxGeometry>
        </mxCell>
        <mxCell id="U0mUFiChf7s_CxI3_zp7-13" value="toBeProcessed[skipped++]&lt;div&gt;= transactions[i]&lt;/div&gt;" style="rounded=0;whiteSpace=wrap;html=1;align=center;" vertex="1" parent="1">
          <mxGeometry x="365" y="430" width="120" height="60" as="geometry" />
        </mxCell>
        <mxCell id="U0mUFiChf7s_CxI3_zp7-17" value="if balance +&lt;div&gt;transactions[i] == 0&lt;/div&gt;" style="rhombus;whiteSpace=wrap;html=1;" vertex="1" parent="1">
          <mxGeometry x="380" y="520" width="80" height="80" as="geometry" />
        </mxCell>
        <mxCell id="U0mUFiChf7s_CxI3_zp7-18" value="" style="rounded=0;whiteSpace=wrap;html=1;" vertex="1" parent="1">
          <mxGeometry x="360" y="640" width="120" height="60" as="geometry" />
        </mxCell>
      </root>
    </mxGraphModel>
  </diagram>
</mxfile>
